<svg xmlns="http://www.w3.org/2000/svg" width="26.8" height="26.8" viewBox="0 0 26.8 26.8">
  <g id="calendar-60" transform="translate(-1 -1)">
    <path id="Path_3" data-name="Path 3" d="M12.748,1H11.583A.582.582,0,0,0,11,1.583V5.661a.582.582,0,0,0,.583.583h1.165a.582.582,0,0,0,.583-.583V1.583A.582.582,0,0,0,12.748,1Z" transform="translate(-4.174)" fill="#f49c24"/>
    <path id="Path_4" data-name="Path 4" d="M34.748,6.243H33.583A.583.583,0,0,1,33,5.661V1.583A.583.583,0,0,1,33.583,1h1.165a.583.583,0,0,1,.583.583V5.661A.583.583,0,0,1,34.748,6.243Z" transform="translate(-13.357)" fill="#f49c24"/>
    <path id="Path_5" data-name="Path 5" d="M26.635,5h-3.5V8.5a.583.583,0,0,1-.583.583h-3.5a.583.583,0,0,1-.583-.583V5H10.322V8.5a.583.583,0,0,1-.583.583h-3.5A.583.583,0,0,1,5.661,8.5V5h-3.5A1.165,1.165,0,0,0,1,6.165V28.3A1.165,1.165,0,0,0,2.165,29.47h24.47A1.165,1.165,0,0,0,27.8,28.3V6.165A1.165,1.165,0,0,0,26.635,5Zm-.583,23.3H2.748a.583.583,0,0,1-.583-.583V11.991a.583.583,0,0,1,.583-.583h23.3a.583.583,0,0,1,.583.583v15.73A.583.583,0,0,1,26.052,28.3Z" transform="translate(0 -1.67)" fill="#f49c24"/>
  </g>
</svg>
