<svg xmlns="http://www.w3.org/2000/svg" width="16" height="12" viewBox="0 0 16 12">
  <g id="eye-19" transform="translate(0 -2)">
    <path id="Path_2" data-name="Path 2" d="M8,14c4.707,0,7.744-5.284,7.871-5.508a1,1,0,0,0,0-.98C15.746,7.287,12.731,2,8,2,3.245,2,.251,7.289.126,7.514a1,1,0,0,0,0,.975C.254,8.713,3.269,14,8,14ZM8,4c2.839,0,5.036,2.835,5.818,4C13.034,9.166,10.837,12,8,12S2.962,9.162,2.181,8C2.958,6.835,5.146,4,8,4Z" fill="#707070"/>
    <circle id="Ellipse_6" data-name="Ellipse 6" cx="2" cy="2" r="2" transform="translate(6 6)" fill="#707070"/>
  </g>
</svg>
