<svg xmlns="http://www.w3.org/2000/svg" width="22" height="22" viewBox="0 0 22 22">
  <g id="ic_local_phone_48px" transform="translate(-6 -6)">
    <path id="Path_8" data-name="Path 8" d="M10.431,15.527a18.407,18.407,0,0,0,8.054,8.048l2.689-2.695a1.226,1.226,0,0,1,1.241-.3,13.913,13.913,0,0,0,4.363.7A1.218,1.218,0,0,1,28,22.5v4.278A1.218,1.218,0,0,1,26.778,28,20.776,20.776,0,0,1,6,7.222,1.222,1.222,0,0,1,7.222,6H11.5a1.218,1.218,0,0,1,1.222,1.222,13.913,13.913,0,0,0,.7,4.363,1.226,1.226,0,0,1-.3,1.241Z" fill="#f49c24"/>
  </g>
</svg>
